<svg xmlns="http://www.w3.org/2000/svg" width="115.511" height="56.837" viewBox="0 0 115.511 56.837"><g transform="translate(-24 -23.709)"><path d="M118.963,239.866l-.067-25.53-13.29,5.415-13.453-5.415v25.53h5.166V221.905l8.213,3.48,8.225-3.271.034,17.752Z" transform="translate(-68.152 -173.169)" fill="#f6f8fd" fill-rule="evenodd"/><rect width="5.505" height="25.529" transform="translate(56.458 41.167)" fill="#f6f8fd"/><rect width="5.504" height="25.529" transform="translate(56.458 41.167)" fill="#f6f8fd"/><path d="M157.417,239.865h10.2c7.343,0,12.377-5.033,12.377-12.764s-5.034-12.764-12.377-12.764h-10.2v25.529Zm5.195-4.85V219.186h4.747c4.456,0,7.374,3.027,7.374,7.914s-2.918,7.914-7.374,7.914Z" transform="translate(-89.55 -173.169)" fill="#f6f8fd" fill-rule="evenodd"/><path d="M157.416,239.865h10.2c7.344,0,12.379-5.033,12.379-12.764s-5.035-12.764-12.379-12.764h-10.2v25.529Zm5.194-4.85V219.186h4.747c4.456,0,7.375,3.027,7.375,7.914s-2.918,7.914-7.375,7.914Z" transform="translate(-89.551 -173.169)" fill="#f6f8fd" fill-rule="evenodd"/><path d="M213.794,239.865h5.779l-10.638-25.529H203.5l-10.6,25.529h5.642l2.105-5.47h11.045l2.108,5.47Zm-11.384-9.956,3.772-9.775,3.773,9.775Z" transform="translate(-101.182 -173.169)" fill="#f6f8fd" fill-rule="evenodd"/><path d="M213.794,239.865h5.778l-10.638-25.529H203.5l-10.6,25.529h5.642l2.106-5.47h11.046l2.106,5.47Zm-11.385-9.956,3.773-9.775,3.773,9.775Z" transform="translate(-101.182 -173.169)" fill="#f6f8fd" fill-rule="evenodd"/><path d="M244.789,240.084c6.612,0,9.82-3.648,9.82-7.908,0-9.373-13.458-6.121-13.458-10.831,0-1.612,1.225-2.925,4.4-2.925a10.5,10.5,0,0,1,5.947,1.86l2.935-3.608c-2.219-2.3-5.94-2.993-8.849-2.993-6.581,0-9.755,3.611-9.755,7.957,0,9.484,13.457,6.2,13.457,10.98,0,4.817-7.954,2.262-10.779,0l-3.174,3.549C237.38,237.914,241.117,240.084,244.789,240.084Z" transform="translate(-115.097 -172.953)" fill="#f6f8fd" fill-rule="evenodd"/><rect width="3.396" height="9.026" transform="translate(57.512 24.423)" fill="#f7931e"/><rect width="3.396" height="9.028" transform="translate(57.512 24.421)" fill="none" stroke="#f7931e" stroke-linecap="round" stroke-linejoin="round" stroke-width="1.425"/><rect width="9.027" height="3.395" transform="matrix(0.863, -0.505, 0.505, 0.863, 62.584, 34.859)" fill="#6007ff"/><rect width="9.027" height="3.395" transform="translate(62.594 34.87) rotate(-30.351)" fill="none" stroke="#6007ff" stroke-linecap="round" stroke-linejoin="round" stroke-width="1.425"/><rect width="3.394" height="9.028" transform="matrix(0.505, -0.863, 0.863, 0.505, 46.174, 33.228)" fill="#0cf"/><rect width="3.394" height="9.027" transform="matrix(0.505, -0.863, 0.863, 0.505, 46.166, 33.236)" fill="none" stroke="#0cf" stroke-linecap="round" stroke-linejoin="round" stroke-width="1.425"/><path d="M104.906,265.043h3.109v.691H106.8v4.37h-.693v-4.37h-1.2Z" transform="translate(-72.334 -189.795)" fill="#f6f8fd" fill-rule="evenodd"/><path d="M117.053,265.043h2.807v.691h-2.117v1.254h2.117v.691h-2.117v1.734h2.117v.691h-2.807Z" transform="translate(-76.317 -189.795)" fill="#f6f8fd" fill-rule="evenodd"/><path d="M132.883,265.135v.782a3.476,3.476,0,0,0-1.506-.4,2.1,2.1,0,0,0-1.487.569,1.847,1.847,0,0,0-.6,1.4,1.825,1.825,0,0,0,.618,1.408,2.208,2.208,0,0,0,1.548.565,2.942,2.942,0,0,0,1.43-.425v.79a3.094,3.094,0,0,1-1.49.366,2.808,2.808,0,0,1-2.011-.794,2.551,2.551,0,0,1-.836-1.919,2.518,2.518,0,0,1,.821-1.887,2.754,2.754,0,0,1,1.979-.786A3.954,3.954,0,0,1,132.883,265.135Z" transform="translate(-80.084 -189.715)" fill="#f6f8fd" fill-rule="evenodd"/><path d="M142.729,265.043h.69v1.937h2.41v-1.937h.69V270.1h-.69v-2.432h-2.41V270.1h-.69Z" transform="translate(-84.735 -189.795)" fill="#f6f8fd" fill-rule="evenodd"/><path d="M156.413,264.741l3.745,3.844v-3.641h.691v5.3l-3.742-3.831v3.6h-.693Z" transform="translate(-89.222 -189.695)" fill="#f6f8fd" fill-rule="evenodd"/><path d="M170.219,267.46a2.492,2.492,0,0,1,.827-1.876,2.785,2.785,0,0,1,1.985-.782,2.715,2.715,0,0,1,1.952.788,2.5,2.5,0,0,1,.819,1.869,2.6,2.6,0,0,1-.809,1.936,2.863,2.863,0,0,1-3.959-.005,2.6,2.6,0,0,1-.815-1.931Zm4.851.04a1.86,1.86,0,0,0-.6-1.408,2.084,2.084,0,0,0-1.487-.574,1.99,1.99,0,0,0-1.438.583,1.887,1.887,0,0,0-.6,1.4,1.847,1.847,0,0,0,.614,1.4,2.13,2.13,0,0,0,1.5.571,1.956,1.956,0,0,0,1.415-.583A1.9,1.9,0,0,0,175.07,267.5Z" transform="translate(-93.749 -189.715)" fill="#f6f8fd" fill-rule="evenodd"/><path d="M185.529,265.043h.69v4.371h1.643v.691h-2.334Z" transform="translate(-98.768 -189.795)" fill="#f6f8fd" fill-rule="evenodd"/><path d="M195.581,267.46a2.49,2.49,0,0,1,.825-1.876,2.789,2.789,0,0,1,1.988-.782,2.718,2.718,0,0,1,1.951.788,2.5,2.5,0,0,1,.816,1.869,2.608,2.608,0,0,1-.807,1.936,2.863,2.863,0,0,1-3.959-.005,2.6,2.6,0,0,1-.815-1.931Zm4.85.04a1.861,1.861,0,0,0-.6-1.408,2.081,2.081,0,0,0-1.487-.574,1.981,1.981,0,0,0-1.436.583,1.879,1.879,0,0,0-.6,1.4,1.847,1.847,0,0,0,.614,1.4,2.131,2.131,0,0,0,1.5.571,1.951,1.951,0,0,0,1.412-.583A1.885,1.885,0,0,0,200.431,267.5Z" transform="translate(-102.064 -189.715)" fill="#f6f8fd" fill-rule="evenodd"/><path d="M215.521,265.771l-.511.5a2.508,2.508,0,0,0-1.8-.757,2.061,2.061,0,0,0-1.487.574,1.894,1.894,0,0,0-.593,1.43,1.915,1.915,0,0,0,.574,1.35,2.105,2.105,0,0,0,1.592.6,1.773,1.773,0,0,0,1.909-1.319h-1.375v-.69h2.165a3.963,3.963,0,0,1-.07.827,2.372,2.372,0,0,1-.288.681,2.53,2.53,0,0,1-.583.669,2.34,2.34,0,0,1-.782.421,3.391,3.391,0,0,1-.993.126,2.74,2.74,0,0,1-2.092-.823,2.653,2.653,0,0,1-.783-1.881,2.556,2.556,0,0,1,.8-1.9,2.666,2.666,0,0,1,1.937-.783,3.536,3.536,0,0,1,1.236.2A3.356,3.356,0,0,1,215.521,265.771Z" transform="translate(-106.924 -189.715)" fill="#f6f8fd" fill-rule="evenodd"/><rect width="0.691" height="5.061" transform="translate(113.655 75.249)" fill="#f6f8fd"/><path d="M234.6,265.043h2.808v.691h-2.116v1.254h2.116v.691h-2.116v1.734h2.116v.691H234.6Z" transform="translate(-114.858 -189.795)" fill="#f6f8fd" fill-rule="evenodd"/><path d="M249.44,265.524l-.559.449a2.332,2.332,0,0,0-.4-.343,1.206,1.206,0,0,0-1.124.055.511.511,0,0,0-.232.434.523.523,0,0,0,.2.4,2.766,2.766,0,0,0,.69.387,5.065,5.065,0,0,1,.757.388,1.926,1.926,0,0,1,.446.4,1.57,1.57,0,0,1,.259.462,1.483,1.483,0,0,1,.085.51,1.438,1.438,0,0,1-.458,1.075,1.537,1.537,0,0,1-1.111.444,1.887,1.887,0,0,1-1.124-.345,2.2,2.2,0,0,1-.749-1.044l.693-.2a1.225,1.225,0,0,0,1.151.855.9.9,0,0,0,.624-.225.724.724,0,0,0,.251-.566.755.755,0,0,0-.131-.412,1.14,1.14,0,0,0-.321-.339,3.519,3.519,0,0,0-.617-.311,4.7,4.7,0,0,1-.651-.324,1.719,1.719,0,0,1-.4-.345,1.481,1.481,0,0,1-.244-.4,1.134,1.134,0,0,1-.077-.425,1.186,1.186,0,0,1,.437-.926,1.561,1.561,0,0,1,1.061-.382,2.146,2.146,0,0,1,.839.178A1.726,1.726,0,0,1,249.44,265.524Z" transform="translate(-118.635 -189.715)" fill="#f6f8fd" fill-rule="evenodd"/></g></svg>